<svg xmlns="http://www.w3.org/2000/svg" xmlns:xlink="http://www.w3.org/1999/xlink" width="794" zoomAndPan="magnify" viewBox="0 0 595.5 842.249979" height="1123" preserveAspectRatio="xMidYMid meet" version="1.0"><defs><clipPath id="28eb187cbc"><path d="M 248 626 L 594.984375 626 L 594.984375 841.5 L 248 841.5 Z M 248 626 " clip-rule="nonzero"/></clipPath><clipPath id="4fa7004a8a"><path d="M 527.355469 559.773438 L 706.589844 748.148438 L 408.554688 1031.71875 L 229.320312 843.34375 Z M 527.355469 559.773438 " clip-rule="nonzero"/></clipPath><clipPath id="c2a06e9a11"><path d="M 581.878906 507.898438 L 1033.320312 982.363281 L 639.738281 1356.84375 L 188.300781 882.375 Z M 581.878906 507.898438 " clip-rule="nonzero"/></clipPath><clipPath id="60c5229326"><path d="M 176 710 L 514 710 L 514 841.5 L 176 841.5 Z M 176 710 " clip-rule="nonzero"/></clipPath><clipPath id="0214b516d7"><path d="M 529.265625 838.273438 L 256.847656 988.25 L 154.933594 803.136719 L 427.351562 653.160156 Z M 529.265625 838.273438 " clip-rule="nonzero"/></clipPath><clipPath id="4a3d8e85a1"><path d="M 535.613281 849.808594 L 263.195312 999.785156 L 154.78125 802.855469 L 427.195312 652.878906 Z M 535.613281 849.808594 " clip-rule="nonzero"/></clipPath><clipPath id="a331176c5f"><path d="M 563 609 L 594.984375 609 L 594.984375 648 L 563 648 Z M 563 609 " clip-rule="nonzero"/></clipPath><clipPath id="fa6ba4e757"><path d="M 585 665 L 594.984375 665 L 594.984375 684 L 585 684 Z M 585 665 " clip-rule="nonzero"/></clipPath><clipPath id="e3ff9825f6"><path d="M 523 674 L 551 674 L 551 705.3125 L 523 705.3125 Z M 523 674 " clip-rule="nonzero"/></clipPath><clipPath id="9040879d93"><path d="M 586 596 L 594.984375 596 L 594.984375 605 L 586 605 Z M 586 596 " clip-rule="nonzero"/></clipPath></defs><g clip-path="url(#28eb187cbc)"><g clip-path="url(#4fa7004a8a)"><g clip-path="url(#c2a06e9a11)"><path fill="#9ebabd" d="M 757.160156 785.398438 C 711.53125 766.953125 681.027344 723.359375 648.648438 687.742188 C 616.253906 652.097656 566.484375 605.347656 514.46875 636.015625 C 494.578125 647.742188 480.425781 669.46875 477.65625 692.511719 C 474.734375 716.792969 483.242188 743.417969 470.472656 764.457031 C 460.375 781.101562 440.09375 788.097656 421.3125 790.261719 C 391.175781 793.730469 360.949219 788.203125 330.757812 790.796875 C 300.5625 793.382812 267.730469 806.988281 254.738281 835.398438 C 241.671875 863.984375 252.910156 896.832031 266.324219 924.25 C 294.710938 982.265625 336.789062 1038.046875 397.777344 1056.785156 C 433.886719 1067.878906 474.492188 1065.261719 507.667969 1083.179688 C 550.566406 1106.355469 570.410156 1157.722656 606.808594 1190.308594 C 650.175781 1229.128906 717.945312 1236.964844 771.015625 1209.292969 C 824.09375 1181.621094 859.246094 1120.125 856.199219 1060.285156 C 854.777344 1032.273438 845.792969 1005.285156 845.460938 977.203125 C 845.195312 955.132812 850.402344 932.8125 860.457031 912.894531 C 871.101562 891.804688 887.632812 871.0625 885.238281 847.90625 C 882.785156 824.195312 860.703125 808.074219 838.371094 801.789062 C 816.03125 795.503906 792.046875 796.023438 769.722656 789.703125 C 765.40625 788.480469 761.226562 787.039062 757.160156 785.398438 " fill-opacity="1" fill-rule="nonzero"/></g></g></g><g clip-path="url(#60c5229326)"><g clip-path="url(#0214b516d7)"><g clip-path="url(#4a3d8e85a1)"><path fill="#446b70" d="M 509.253906 821.089844 C 511.347656 835.582031 508.65625 851.660156 498.835938 862.996094 C 487.199219 876.425781 468.625 879.53125 451.824219 880.851562 C 435.277344 882.152344 418.160156 882.464844 402.882812 889.824219 C 396.105469 893.089844 390.269531 898.164062 385.941406 904.304688 C 381.519531 910.574219 378.886719 917.960938 374.691406 924.414062 C 366.414062 937.152344 354.28125 947.601562 338.644531 949.027344 C 332.140625 949.617188 325.339844 948.636719 319.589844 945.417969 C 313.574219 942.050781 309.5625 936.492188 306.984375 930.203125 C 301.78125 917.519531 301.953125 902.882812 294.867188 890.921875 C 288.441406 880.078125 277.09375 876.097656 264.988281 876.472656 C 252.34375 876.867188 239.800781 880.769531 227.109375 879.203125 C 214.140625 877.605469 202.105469 870.726562 193.367188 861.128906 C 184.605469 851.5 179.09375 838.84375 179.261719 825.71875 C 179.425781 812.65625 184.925781 799.933594 193.585938 790.25 C 202.277344 780.527344 214.101562 773.804688 227.140625 772.339844 C 242.382812 770.625 257.519531 774.800781 272.757812 774.492188 C 304.394531 773.855469 326.3125 749.605469 350.148438 732.1875 C 362.226562 723.359375 375.570312 715.957031 390.660156 714.234375 C 405.691406 712.515625 421.109375 715.996094 434.621094 722.585938 C 449.304688 729.746094 461.8125 740.644531 472.445312 752.933594 C 483.804688 766.058594 494.066406 780.964844 501.496094 796.683594 C 505.167969 804.460938 507.890625 812.589844 509.253906 821.089844 C 509.585938 823.160156 512.746094 822.390625 512.417969 820.335938 C 509.535156 802.40625 500.539062 786.339844 490.523438 771.464844 C 480.707031 756.886719 469.4375 743.09375 455.617188 732.128906 C 431.949219 713.355469 399.851562 704.039062 371.007812 716.152344 C 341.242188 728.65625 321.640625 758.289062 290.628906 768.285156 C 274.992188 773.328125 259.261719 770.253906 243.3125 769.058594 C 229.050781 767.984375 215.277344 769.726562 203.125 777.738281 C 181.367188 792.085938 169.941406 820.261719 179.613281 845.117188 C 184.339844 857.257812 193.304688 867.648438 204.390625 874.449219 C 215.84375 881.476562 228.511719 883.667969 241.757812 882.292969 C 254.265625 880.996094 268.625 876.828125 280.703125 882.222656 C 295 888.609375 297.03125 905.542969 300.222656 919.023438 C 303.328125 932.121094 308.667969 944.984375 322.109375 950.15625 C 334.113281 954.773438 348.585938 952.195312 359.171875 945.242188 C 365.714844 940.941406 371.144531 935.164062 375.644531 928.796875 C 380.542969 921.867188 383.4375 913.867188 388.117188 906.867188 C 398.765625 890.9375 418.488281 886.707031 436.410156 885.136719 C 453.75 883.621094 471.96875 883.925781 487.816406 875.640625 C 501.269531 868.613281 509.699219 855.765625 512.253906 840.960938 C 513.4375 834.113281 513.40625 827.203125 512.414062 820.335938 C 512.117188 818.261719 508.957031 819.035156 509.253906 821.089844 Z M 509.253906 821.089844 " fill-opacity="1" fill-rule="nonzero"/></g></g></g><g clip-path="url(#a331176c5f)"><path fill="#446b70" d="M 591.234375 611.464844 C 585.628906 609.429688 579.277344 608.988281 573.738281 611.191406 C 568.195312 613.398438 563.671875 618.523438 563.089844 624.457031 C 562.382812 631.667969 567.773438 638.65625 574.652344 640.921875 C 576.566406 641.550781 578.578125 641.882812 580.347656 642.835938 C 582.613281 644.050781 584.324219 646.199219 586.710938 647.144531 C 593.566406 649.84375 605.160156 639.996094 606.867188 633.359375 C 609.402344 623.542969 599.460938 614.453125 591.234375 611.464844 Z M 591.234375 611.464844 " fill-opacity="1" fill-rule="nonzero"/></g><g clip-path="url(#fa6ba4e757)"><path fill="#446b70" d="M 601.503906 673.101562 C 600.355469 668.917969 597.152344 665.238281 592.90625 666.109375 C 588.863281 666.9375 585.734375 670.972656 585.9375 675.089844 C 586.140625 679.210938 589.648438 682.921875 593.753906 683.351562 C 596.679688 683.660156 599.78125 682.320312 601.410156 679.851562 C 603.035156 677.378906 602.289062 675.941406 601.503906 673.101562 Z M 601.503906 673.101562 " fill-opacity="1" fill-rule="nonzero"/></g><path fill="#446b70" d="M 520.734375 570.488281 C 519.824219 566.296875 515.527344 564.074219 511.367188 563.027344 C 507.210938 561.984375 502.6875 563.027344 499.082031 565.328125 C 493.449219 568.949219 490.011719 575.859375 490.828125 582.507812 C 491.644531 589.160156 496.820312 595.144531 503.359375 596.605469 C 509.898438 598.066406 517.289062 594.726562 520.246094 588.714844 C 522.980469 583.164062 522.058594 576.539062 520.734375 570.488281 Z M 520.734375 570.488281 " fill-opacity="1" fill-rule="nonzero"/><g clip-path="url(#e3ff9825f6)"><path fill="#446b70" d="M 549.523438 677.347656 C 546.460938 671.105469 537.304688 677.394531 531.085938 680.511719 C 527.664062 682.226562 523.746094 684.722656 523.753906 688.53125 C 523.753906 692.132812 527.316406 694.65625 528.664062 697.992188 C 529.582031 700.289062 529.613281 703.199219 531.632812 704.613281 C 532.820312 705.445312 534.398438 705.484375 535.824219 705.230469 C 541.398438 704.242188 545.671875 699.425781 547.613281 694.128906 C 549.554688 688.828125 552.023438 682.417969 549.523438 677.347656 Z M 549.523438 677.347656 " fill-opacity="1" fill-rule="nonzero"/></g><path fill="#446b70" d="M 548.035156 653.640625 C 547.066406 649.898438 542.605469 647.210938 540.785156 650.617188 C 539.707031 652.625 541.511719 655.4375 543.515625 656.515625 C 545.523438 657.589844 548.605469 655.84375 548.035156 653.640625 Z M 548.035156 653.640625 " fill-opacity="1" fill-rule="nonzero"/><path fill="#446b70" d="M 527.507812 610.421875 C 526.539062 606.679688 522.078125 603.992188 520.253906 607.398438 C 519.179688 609.40625 520.984375 612.21875 522.988281 613.292969 C 524.996094 614.371094 528.078125 612.625 527.507812 610.421875 Z M 527.507812 610.421875 " fill-opacity="1" fill-rule="nonzero"/><path fill="#446b70" d="M 544.214844 558.574219 C 543.246094 554.832031 538.785156 552.140625 536.964844 555.546875 C 535.886719 557.554688 537.691406 560.367188 539.695312 561.445312 C 541.703125 562.519531 544.785156 560.773438 544.214844 558.574219 Z M 544.214844 558.574219 " fill-opacity="1" fill-rule="nonzero"/><g clip-path="url(#9040879d93)"><path fill="#446b70" d="M 594.074219 601.542969 C 593.105469 597.804688 588.644531 595.113281 586.824219 598.519531 C 585.75 600.527344 587.550781 603.339844 589.554688 604.414062 C 591.5625 605.492188 594.644531 603.75 594.074219 601.542969 Z M 594.074219 601.542969 " fill-opacity="1" fill-rule="nonzero"/></g></svg>