<svg xmlns="http://www.w3.org/2000/svg" xmlns:xlink="http://www.w3.org/1999/xlink" width="794" zoomAndPan="magnify" viewBox="0 0 595.5 842.249979" height="1123" preserveAspectRatio="xMidYMid meet" version="1.0"><defs><clipPath id="a441df3357"><path d="M 0.015625 0 L 312 0 L 312 207 L 0.015625 207 Z M 0.015625 0 " clip-rule="nonzero"/></clipPath><clipPath id="84e32af1b5"><path d="M 81.785156 268.367188 L -108.078125 103.011719 L 137.988281 -179.527344 L 327.851562 -14.171875 Z M 81.785156 268.367188 " clip-rule="nonzero"/></clipPath><clipPath id="959f01b250"><path d="M 39.671875 316.722656 L -411.257812 -75.996094 L -85.957031 -449.507812 L 364.96875 -56.789062 Z M 39.671875 316.722656 " clip-rule="nonzero"/></clipPath><clipPath id="1895de76f8"><path d="M 22 0 L 359 0 L 359 124 L 22 124 Z M 22 0 " clip-rule="nonzero"/></clipPath><clipPath id="c5925c11ec"><path d="M 9.519531 -5.601562 L 289.382812 -141.183594 L 378.898438 43.589844 L 99.039062 179.171875 Z M 9.519531 -5.601562 " clip-rule="nonzero"/></clipPath><clipPath id="9a5a3cd0a3"><path d="M 1.152344 -22.878906 L 281.011719 -158.460938 L 379.023438 43.847656 L 99.164062 179.429688 Z M 1.152344 -22.878906 " clip-rule="nonzero"/></clipPath><clipPath id="fa3bac4ec1"><path d="M 24 118.402344 L 43 118.402344 L 43 140 L 24 140 Z M 24 118.402344 " clip-rule="nonzero"/></clipPath><clipPath id="1e14471066"><path d="M 0.015625 180 L 29 180 L 29 219 L 0.015625 219 Z M 0.015625 180 " clip-rule="nonzero"/></clipPath></defs><g clip-path="url(#a441df3357)"><g clip-path="url(#84e32af1b5)"><g clip-path="url(#959f01b250)"><path fill="#9ebabd" d="M -143.183594 79.710938 C -100.171875 92.5625 -68.75 129.542969 -36.308594 159.121094 C -3.847656 188.722656 45.335938 226.921875 89.949219 194.636719 C 107.007812 182.289062 118.003906 161.351562 118.554688 140.191406 C 119.132812 117.894531 109.132812 94.445312 118.933594 74.25 C 126.679688 58.273438 144.5 50.1875 161.367188 46.621094 C 188.441406 40.894531 216.359375 43.335938 243.550781 38.402344 C 270.75 33.472656 299.402344 18.320312 308.773438 -8.585938 C 318.195312 -35.664062 305.183594 -64.53125 290.664062 -88.28125 C 259.9375 -138.535156 216.964844 -185.597656 159.984375 -197.402344 C 126.25 -204.398438 89.601562 -198.554688 57.945312 -211.992188 C 17.011719 -229.371094 -5.394531 -274.320312 -41.226562 -300.804688 C -83.921875 -332.351562 -146.125 -333.679688 -191.957031 -304.019531 C -237.789062 -274.363281 -264.460938 -215.519531 -256.582031 -161.441406 C -252.898438 -136.128906 -242.4375 -112.390625 -239.738281 -86.917969 C -237.613281 -66.898438 -240.433594 -46.183594 -247.863281 -27.242188 C -255.730469 -7.179688 -268.96875 13.0625 -264.816406 33.886719 C -260.566406 55.207031 -239.140625 67.960938 -218.324219 71.757812 C -197.5 75.558594 -175.765625 73.039062 -154.953125 76.875 C -150.929688 77.613281 -147.011719 78.566406 -143.183594 79.710938 " fill-opacity="1" fill-rule="nonzero"/></g></g></g><g clip-path="url(#1895de76f8)"><g clip-path="url(#c5925c11ec)"><g clip-path="url(#9a5a3cd0a3)"><path fill="#446b70" d="M 25.980469 7.171875 C 24.644531 -7.40625 28.167969 -23.324219 38.566406 -34.132812 C 50.886719 -46.9375 69.597656 -49.070312 86.445312 -49.515625 C 103.035156 -49.949219 120.144531 -49.375 135.785156 -55.929688 C 142.726562 -58.835938 148.816406 -63.597656 153.460938 -69.503906 C 158.203125 -75.535156 161.21875 -82.777344 165.742188 -89 C 174.671875 -101.292969 187.335938 -111.09375 203.023438 -111.703125 C 209.546875 -111.953125 216.289062 -110.621094 221.863281 -107.105469 C 227.695312 -103.429688 231.410156 -97.667969 233.660156 -91.253906 C 238.195312 -78.316406 237.257812 -63.710938 243.714844 -51.394531 C 249.566406 -40.230469 260.691406 -35.664062 272.800781 -35.410156 C 285.445312 -35.144531 298.175781 -38.386719 310.765625 -36.164062 C 323.636719 -33.890625 335.300781 -26.394531 343.523438 -16.355469 C 351.773438 -6.28125 356.617188 6.644531 355.765625 19.742188 C 354.921875 32.777344 348.765625 45.195312 339.613281 54.417969 C 330.425781 63.671875 318.269531 69.769531 305.171875 70.554688 C 289.859375 71.472656 274.960938 66.515625 259.726562 66.027344 C 228.097656 65.015625 204.949219 88.089844 180.238281 104.246094 C 167.71875 112.429688 154.003906 119.125 138.847656 120.0625 C 123.746094 120.996094 108.527344 116.714844 95.378906 109.433594 C 81.089844 101.515625 69.167969 89.980469 59.1875 77.15625 C 48.527344 63.453125 39.058594 48.035156 32.457031 31.949219 C 29.195312 23.992188 26.902344 15.730469 25.980469 7.171875 C 25.753906 5.089844 22.558594 5.695312 22.78125 7.761719 C 24.726562 25.816406 32.871094 42.328125 42.101562 57.707031 C 51.140625 72.773438 61.679688 87.136719 74.910156 98.808594 C 97.566406 118.789062 129.136719 129.765625 158.570312 119.167969 C 188.945312 108.234375 210.070312 79.664062 241.558594 71.292969 C 257.433594 67.074219 272.984375 70.960938 288.847656 72.988281 C 303.035156 74.800781 316.882812 73.78125 329.4375 66.414062 C 351.910156 53.21875 364.789062 25.679688 356.421875 0.351562 C 352.335938 -12.019531 343.925781 -22.859375 333.210938 -30.230469 C 322.136719 -37.847656 309.601562 -40.695312 296.304688 -40.011719 C 283.742188 -39.367188 269.1875 -35.953125 257.40625 -41.96875 C 243.460938 -49.09375 242.316406 -66.109375 239.828125 -79.738281 C 237.410156 -92.976562 232.75 -106.105469 219.597656 -111.96875 C 207.84375 -117.203125 193.261719 -115.382812 182.328125 -108.992188 C 175.566406 -105.039062 169.84375 -99.550781 165.015625 -93.425781 C 159.765625 -86.761719 156.460938 -78.925781 151.421875 -72.175781 C 139.957031 -56.824219 120.039062 -53.625 102.058594 -52.992188 C 84.667969 -52.382812 66.488281 -53.632812 50.230469 -46.1875 C 36.429688 -39.867188 27.34375 -27.480469 24.019531 -12.828125 C 22.480469 -6.050781 22.152344 0.851562 22.785156 7.761719 C 22.972656 9.847656 26.167969 9.238281 25.980469 7.171875 Z M 25.980469 7.171875 " fill-opacity="1" fill-rule="nonzero"/></g></g></g><g clip-path="url(#fa3bac4ec1)"><path fill="#446b70" d="M 41.578125 124.109375 C 40.429688 120.632812 36.550781 118.402344 32.894531 118.5625 C 31.980469 118.621094 31.089844 118.808594 30.230469 119.128906 C 29.371094 119.449219 28.578125 119.890625 27.851562 120.449219 C 27.121094 121.007812 26.492188 121.664062 25.960938 122.410156 C 25.429688 123.160156 25.019531 123.96875 24.726562 124.839844 C 24.113281 126.8125 24.191406 128.929688 24.457031 130.964844 C 24.71875 133 25.191406 135.089844 26.429688 136.734375 C 29.296875 140.5625 35.636719 140.402344 39.109375 137.117188 C 42.582031 133.832031 43.066406 128.640625 41.578125 124.109375 Z M 41.578125 124.109375 " fill-opacity="1" fill-rule="nonzero"/></g><g clip-path="url(#1e14471066)"><path fill="#446b70" d="M 12.789062 182.664062 C 7.1875 180.632812 0.835938 180.1875 -4.707031 182.394531 C -10.246094 184.597656 -14.769531 189.726562 -15.351562 195.660156 C -16.0625 202.867188 -10.671875 209.855469 -3.789062 212.121094 C -1.875 212.75 0.136719 213.082031 1.90625 214.035156 C 4.171875 215.25 5.878906 217.402344 8.269531 218.34375 C 15.121094 221.042969 26.71875 211.195312 28.425781 204.5625 C 30.960938 194.746094 21.019531 185.65625 12.789062 182.664062 Z M 12.789062 182.664062 " fill-opacity="1" fill-rule="nonzero"/></g><path fill="#446b70" d="M 41.308594 173.578125 C 39.945312 171.398438 37.59375 172.832031 35.441406 174.230469 C 33.289062 175.628906 32.628906 178.914062 34.128906 180.996094 C 35.625 183.078125 39.011719 183.476562 40.914062 181.761719 C 43.101562 179.765625 42.878906 176.082031 41.308594 173.578125 Z M 41.308594 173.578125 " fill-opacity="1" fill-rule="nonzero"/><path fill="#446b70" d="M 23.0625 244.300781 C 21.914062 240.121094 18.710938 236.4375 14.464844 237.3125 C 10.421875 238.136719 7.292969 242.171875 7.496094 246.292969 C 7.699219 250.414062 11.207031 254.121094 15.308594 254.554688 C 18.238281 254.859375 21.339844 253.519531 22.96875 251.050781 C 24.59375 248.582031 23.847656 247.140625 23.0625 244.300781 Z M 23.0625 244.300781 " fill-opacity="1" fill-rule="nonzero"/><path fill="#446b70" d="M 92.042969 186.863281 C 90.894531 182.683594 87.6875 178.996094 83.441406 179.871094 C 79.398438 180.703125 76.273438 184.734375 76.476562 188.855469 C 76.679688 192.980469 80.183594 196.6875 84.289062 197.113281 C 87.21875 197.421875 90.320312 196.082031 91.945312 193.613281 C 93.574219 191.140625 92.828125 189.703125 92.042969 186.863281 Z M 92.042969 186.863281 " fill-opacity="1" fill-rule="nonzero"/><path fill="#446b70" d="M 15.632812 172.746094 C 14.664062 169.003906 10.203125 166.3125 8.378906 169.722656 C 7.308594 171.726562 9.109375 174.542969 11.113281 175.617188 C 13.121094 176.691406 16.203125 174.949219 15.632812 172.746094 Z M 15.632812 172.746094 " fill-opacity="1" fill-rule="nonzero"/></svg>